<?xml version="1.0" standalone="no"?>
<!DOCTYPE svg PUBLIC "-//W3C//DTD SVG 20010904//EN"
 "http://www.w3.org/TR/2001/REC-SVG-20010904/DTD/svg10.dtd">
<svg version="1.0" xmlns="http://www.w3.org/2000/svg"
 width="518.000000pt" height="518.000000pt" viewBox="0 0 518.000000 518.000000"
 preserveAspectRatio="xMidYMid meet">
<metadata>
Created by potrace 1.14, written by Peter Selinger 2001-2017
</metadata>
<g transform="translate(0.000000,518.000000) scale(0.100000,-0.100000)"
fill="#000000" stroke="none">
<path d="M936 5164 c-474 -85 -836 -448 -920 -924 -22 -124 -23 -3172 -1
-3295 44 -241 144 -434 314 -607 177 -178 394 -288 646 -325 55 -9 3146 -9
3220 -1 226 26 460 139 637 309 145 140 253 321 305 509 38 142 39 176 38
1795 -2 1431 -3 1577 -19 1645 -38 170 -97 307 -191 440 -98 139 -280 292
-422 356 -32 14 -71 32 -88 39 -42 19 -128 42 -215 59 -111 22 -3185 21 -3304
0z"/>
</g>
</svg>
